<svg width="77" height="91" viewBox="0 0 77 91" fill="none" xmlns="http://www.w3.org/2000/svg">
<path d="M36.5908 13.7773C37.3753 13.7499 38.2641 13.7372 39.0537 13.7676L39.6602 13.7998C45.9051 14.2101 51.7606 17.0178 55.9932 21.6494C59.2004 25.1623 61.3157 29.5328 62.082 34.2275C62.2497 35.2444 62.3937 36.2652 62.3545 37.3232L62.3486 37.4795L62.2061 37.542C55.4344 40.548 48.0482 42.0739 40.6123 41.2773C37.8166 40.9777 35.1043 40.3268 32.4121 39.709C29.7143 39.0898 27.0341 38.5029 24.2764 38.3145C21.7353 38.1414 19.2798 38.5908 16.8945 39.4854C16.91 41.0364 17.3205 42.5121 17.667 44.0498C22.1409 42.5665 26.4521 43.057 30.7305 43.957C35.1106 44.8785 39.4243 46.2174 43.9307 46.3818C50.6062 46.6258 55.5117 45.2921 61.6885 42.9688L62.1846 42.7822L62.0137 43.2842C60.7241 47.0513 59.7037 49.9217 57.1367 53.1084C52.694 58.6247 47.1895 61.501 40.2451 62.3086L40.2344 62.3105V62.3096C39.4062 62.3703 38.5769 62.3956 37.7471 62.3867C31.3565 62.3152 25.2519 59.7244 20.7627 55.1758V55.1748C16.1565 50.5356 13.6282 44.2272 13.7549 37.6914L13.7578 37.5459L13.8857 37.4766C18.7407 34.8575 23.2464 34.8401 27.7441 35.5801C29.9872 35.9491 32.2386 36.5082 34.5225 37.0264C36.8112 37.5456 39.1412 38.0252 41.5645 38.2441C47.6264 38.7913 53.452 37.6897 59.1133 35.4697C58.9107 33.8727 58.5887 32.5883 58.1152 31.0537C52.1825 32.9973 47.426 33.9367 41.0293 33.4863C37.4629 33.2352 33.9833 32.2773 30.5469 31.499C27.0987 30.7181 23.6812 30.1146 20.1797 30.5371C18.5853 30.7295 16.3404 31.4446 14.7764 32.0479L14.2783 32.2402L14.4492 31.7344C16.2194 26.5001 18.9575 22.2676 22.6562 19.2139C26.3559 16.1594 31.004 14.295 36.5762 13.7783H36.584L36.5908 13.7773ZM23.5938 46.1846H23.5908C21.9204 46.2448 20.3459 46.4251 18.7676 46.9238C20.656 51.4512 25.0088 55.5681 29.4766 57.4971L29.4785 57.498C34.6964 59.7852 40.6114 59.8942 45.9102 57.7998L46.4473 57.5762C47.6923 57.0374 48.8801 56.3749 49.9932 55.5977C52.6126 53.7568 54.4649 51.8212 56.1846 49.0967C56.3825 48.7831 56.6709 48.2898 56.8809 47.876C52.508 49.0308 48.891 49.5696 45.2559 49.54C41.4808 49.5093 37.6983 48.867 33.0449 47.6846C31.761 47.3581 30.0495 46.9532 28.3301 46.6445C26.6065 46.3352 24.8914 46.1257 23.5938 46.1846ZM43.8057 17.6328C42.0334 17.1519 39.3901 16.7385 37.5781 16.8506H37.5684C31.8767 16.9692 26.4748 19.3847 22.5908 23.5469L22.5889 23.5479C21.678 24.5116 20.385 26.1919 19.6611 27.4727C25.1249 26.6632 29.7214 28.2329 34.9727 29.3691C35.9301 29.5764 38.1145 30.0601 38.9795 30.1201L38.9883 30.1211L38.9961 30.1221C45.5422 31.012 50.6807 30.2839 56.8682 28.21C56.1094 26.8746 55.3312 25.5999 54.3457 24.4336C51.6549 21.2504 47.8291 18.7247 43.8057 17.6328Z" fill="#3466E5" stroke="#3466E5" stroke-width="0.5"/>
<path d="M38.0693 89L14.0231 64.9538C8.57833 60.0838 4.74056 53.6754 3.01762 46.5766C1.29469 39.4777 1.7678 32.0231 4.37437 25.199C6.98093 18.3749 11.5981 12.5031 17.6148 8.36057C23.6316 4.21802 30.7644 2 38.0693 2C45.3743 2 52.507 4.21802 58.5238 8.36057C64.5406 12.5031 69.1577 18.3749 71.7643 25.199C74.3708 32.0231 74.844 39.4777 73.121 46.5766C71.3981 53.6754 67.5603 60.0838 62.1155 64.9538L38.0693 89Z" stroke="#3466E5" stroke-width="4" stroke-linecap="round" stroke-linejoin="round"/>
</svg>
